<svg xmlns="http://www.w3.org/2000/svg" width="1200" height="760" viewBox="0 0 1200 760">
<defs>
<linearGradient id="bg" x1="0" y1="0" x2="1" y2="1">
<stop offset="0%" stop-color="#f7fbff"/>
<stop offset="100%" stop-color="#eef6f8"/>
</linearGradient>
</defs>
<rect x="0" y="0" width="1200" height="760" fill="url(#bg)"/>
<rect x="90" y="70" width="1080" height="600" fill="#ffffff" stroke="#d8e1e8"/>
<line x1="90.00" y1="70" x2="90.00" y2="670" stroke="#edf2f6" stroke-width="1"/>
<line x1="90.00" y1="670" x2="90.00" y2="676" stroke="#9aa8b5"/>
<text x="90.00" y="710" text-anchor="middle" font-family="Helvetica,Arial,sans-serif" font-size="14" fill="#425466">-0.100</text>
<line x1="270.00" y1="70" x2="270.00" y2="670" stroke="#edf2f6" stroke-width="1"/>
<line x1="270.00" y1="670" x2="270.00" y2="676" stroke="#9aa8b5"/>
<text x="270.00" y="710" text-anchor="middle" font-family="Helvetica,Arial,sans-serif" font-size="14" fill="#425466">0.350</text>
<line x1="450.00" y1="70" x2="450.00" y2="670" stroke="#edf2f6" stroke-width="1"/>
<line x1="450.00" y1="670" x2="450.00" y2="676" stroke="#9aa8b5"/>
<text x="450.00" y="710" text-anchor="middle" font-family="Helvetica,Arial,sans-serif" font-size="14" fill="#425466">0.800</text>
<line x1="630.00" y1="70" x2="630.00" y2="670" stroke="#edf2f6" stroke-width="1"/>
<line x1="630.00" y1="670" x2="630.00" y2="676" stroke="#9aa8b5"/>
<text x="630.00" y="710" text-anchor="middle" font-family="Helvetica,Arial,sans-serif" font-size="14" fill="#425466">1.250</text>
<line x1="810.00" y1="70" x2="810.00" y2="670" stroke="#edf2f6" stroke-width="1"/>
<line x1="810.00" y1="670" x2="810.00" y2="676" stroke="#9aa8b5"/>
<text x="810.00" y="710" text-anchor="middle" font-family="Helvetica,Arial,sans-serif" font-size="14" fill="#425466">1.700</text>
<line x1="990.00" y1="70" x2="990.00" y2="670" stroke="#edf2f6" stroke-width="1"/>
<line x1="990.00" y1="670" x2="990.00" y2="676" stroke="#9aa8b5"/>
<text x="990.00" y="710" text-anchor="middle" font-family="Helvetica,Arial,sans-serif" font-size="14" fill="#425466">2.150</text>
<line x1="1170.00" y1="70" x2="1170.00" y2="670" stroke="#edf2f6" stroke-width="1"/>
<line x1="1170.00" y1="670" x2="1170.00" y2="676" stroke="#9aa8b5"/>
<text x="1170.00" y="710" text-anchor="middle" font-family="Helvetica,Arial,sans-serif" font-size="14" fill="#425466">2.600</text>
<line x1="90" y1="670.00" x2="1170" y2="670.00" stroke="#edf2f6" stroke-width="1"/>
<line x1="84" y1="670.00" x2="90" y2="670.00" stroke="#9aa8b5"/>
<text x="78" y="675.00" text-anchor="end" font-family="Helvetica,Arial,sans-serif" font-size="14" fill="#425466">-2.19</text>
<line x1="90" y1="570.00" x2="1170" y2="570.00" stroke="#edf2f6" stroke-width="1"/>
<line x1="84" y1="570.00" x2="90" y2="570.00" stroke="#9aa8b5"/>
<text x="78" y="575.00" text-anchor="end" font-family="Helvetica,Arial,sans-serif" font-size="14" fill="#425466">0.74</text>
<line x1="90" y1="470.00" x2="1170" y2="470.00" stroke="#edf2f6" stroke-width="1"/>
<line x1="84" y1="470.00" x2="90" y2="470.00" stroke="#9aa8b5"/>
<text x="78" y="475.00" text-anchor="end" font-family="Helvetica,Arial,sans-serif" font-size="14" fill="#425466">3.68</text>
<line x1="90" y1="370.00" x2="1170" y2="370.00" stroke="#edf2f6" stroke-width="1"/>
<line x1="84" y1="370.00" x2="90" y2="370.00" stroke="#9aa8b5"/>
<text x="78" y="375.00" text-anchor="end" font-family="Helvetica,Arial,sans-serif" font-size="14" fill="#425466">6.61</text>
<line x1="90" y1="270.00" x2="1170" y2="270.00" stroke="#edf2f6" stroke-width="1"/>
<line x1="84" y1="270.00" x2="90" y2="270.00" stroke="#9aa8b5"/>
<text x="78" y="275.00" text-anchor="end" font-family="Helvetica,Arial,sans-serif" font-size="14" fill="#425466">9.54</text>
<line x1="90" y1="170.00" x2="1170" y2="170.00" stroke="#edf2f6" stroke-width="1"/>
<line x1="84" y1="170.00" x2="90" y2="170.00" stroke="#9aa8b5"/>
<text x="78" y="175.00" text-anchor="end" font-family="Helvetica,Arial,sans-serif" font-size="14" fill="#425466">12.47</text>
<line x1="90" y1="70.00" x2="1170" y2="70.00" stroke="#edf2f6" stroke-width="1"/>
<line x1="84" y1="70.00" x2="90" y2="70.00" stroke="#9aa8b5"/>
<text x="78" y="75.00" text-anchor="end" font-family="Helvetica,Arial,sans-serif" font-size="14" fill="#425466">15.40</text>
<text x="90" y="36" font-family="Helvetica,Arial,sans-serif" font-weight="700" font-size="24" fill="#112433">AMuBA Airfoil Skin Test Preview</text>
<text x="90" y="58" font-family="Helvetica,Arial,sans-serif" font-size="14" fill="#4f6475">Representative 2.5 strain-level filtered force-displacement data (parallel vs normal to ribs)</text>
<line x1="90" y1="595.41" x2="1170" y2="595.41" stroke="#c7d3dd" stroke-dasharray="4 4"/>
<path d="M 130.00,596.54 L 132.28,595.74 L 134.52,610.07 L 136.75,609.10 L 138.97,594.30 L 141.22,591.21 L 143.44,617.84 L 145.68,617.27 L 147.92,585.95 L 150.11,607.90 L 152.36,603.14 L 154.63,580.74 L 156.87,586.65 L 159.06,610.60 L 161.30,602.36 L 163.56,597.51 L 165.80,574.74 L 168.03,596.60 L 170.24,584.43 L 172.53,585.60 L 174.73,580.91 L 177.05,584.95 L 179.18,580.64 L 181.46,586.94 L 183.65,589.45 L 185.93,593.15 L 188.14,586.23 L 190.33,566.40 L 192.59,592.60 L 194.84,564.46 L 197.09,592.19 L 199.32,569.37 L 201.57,556.78 L 203.80,558.66 L 206.02,573.63 L 208.28,572.63 L 210.46,552.12 L 212.73,569.80 L 214.97,585.73 L 217.17,584.37 L 219.42,582.07 L 221.63,551.74 L 223.89,567.80 L 226.10,546.89 L 228.35,551.40 L 230.60,545.34 L 232.81,570.53 L 235.01,548.12 L 237.28,565.97 L 239.56,562.46 L 241.75,546.58 L 243.99,544.46 L 246.26,554.48 L 248.41,559.04 L 250.66,537.66 L 252.91,548.64 L 255.20,559.39 L 257.39,557.05 L 259.67,552.02 L 261.85,565.53 L 264.06,568.00 L 266.35,548.50 L 268.49,549.96 L 270.73,530.09 L 273.04,562.32 L 275.26,550.55 L 277.47,552.27 L 279.69,561.83 L 281.98,549.46 L 284.18,535.87 L 286.41,539.97 L 288.67,540.36 L 290.88,539.94 L 293.11,518.58 L 295.39,533.38 L 297.60,533.86 L 299.76,526.40 L 302.05,508.10 L 304.23,504.97 L 306.55,525.12 L 308.70,515.66 L 311.00,507.89 L 313.20,533.17 L 315.44,512.73 L 317.67,512.31 L 319.93,527.00 L 322.17,519.16 L 324.39,502.44 L 326.66,518.60 L 328.84,523.03 L 331.10,497.10 L 333.29,523.37 L 335.55,519.79 L 337.81,517.24 L 340.01,493.15 L 342.25,500.59 L 344.46,506.66 L 346.71,516.78 L 348.95,522.46 L 351.21,512.05 L 353.44,526.82 L 355.65,486.97 L 357.87,512.12 L 360.12,480.56 L 362.35,511.56 L 364.59,522.96 L 366.80,508.76 L 369.07,505.02 L 371.27,513.85 L 373.50,494.08 L 375.72,493.25 L 378.00,502.16 L 380.23,487.27 L 382.41,503.42 L 384.65,474.86 L 386.91,489.51 L 389.15,491.80 L 391.37,496.70 L 393.59,474.54 L 395.87,499.29 L 398.05,477.32 L 400.36,467.22 L 402.53,490.97 L 404.80,469.70 L 407.04,466.15 L 409.21,489.23 L 411.47,475.21 L 413.70,470.86 L 415.98,475.29 L 418.20,482.81 L 420.38,477.78 L 422.59,472.74 L 424.89,500.74 L 427.14,457.04 L 429.38,454.38 L 431.59,456.76 L 433.79,469.78 L 436.04,466.99 L 438.28,469.22 L 440.49,453.24 L 442.77,450.79 L 444.99,481.46 L 447.23,479.15 L 449.47,478.24 L 451.72,480.54 L 453.88,483.51 L 456.16,442.48 L 458.39,476.20 L 460.61,467.05 L 462.83,441.97 L 465.06,468.29 L 467.31,477.76 L 469.53,469.37 L 471.81,454.86 L 473.96,440.49 L 476.23,475.83 L 478.49,441.84 L 480.69,440.99 L 482.94,458.52 L 485.19,474.77 L 487.41,438.07 L 489.64,443.40 L 491.90,456.18 L 494.11,451.17 L 496.31,450.81 L 498.56,437.06 L 500.80,451.51 L 503.06,462.15 L 505.30,435.49 L 507.49,446.01 L 509.74,449.03 L 511.99,465.09 L 514.20,452.25 L 516.49,447.41 L 518.70,444.92 L 520.93,441.00 L 523.15,424.85 L 525.39,439.75 L 527.61,436.69 L 529.82,443.43 L 532.06,431.30 L 534.30,435.02 L 536.52,429.19 L 538.74,432.85 L 541.04,417.59 L 543.26,446.77 L 545.47,428.20 L 547.72,448.21 L 549.90,441.55 L 552.18,426.92 L 554.39,410.18 L 556.63,433.85 L 558.90,433.32 L 561.12,443.94 L 563.34,411.58 L 565.58,414.72 L 567.81,423.11 L 570.04,407.94 L 572.27,411.26 L 574.56,437.78 L 576.76,427.71 L 578.96,428.17 L 581.25,430.80 L 583.44,403.87 L 585.72,401.28 L 587.91,400.88 L 590.17,401.41 L 592.36,395.36 L 594.64,403.86 L 596.88,398.50 L 599.07,392.38 L 601.30,419.77 L 603.57,417.30 L 605.79,410.23 L 607.98,399.12 L 610.21,417.67 L 612.50,411.21 L 614.70,405.73 L 616.97,391.61 L 619.20,397.19 L 621.40,397.82 L 623.66,402.36 L 625.86,387.88 L 628.09,390.33 L 630.35,425.06 L 632.58,401.18 L 634.79,391.40 L 637.02,410.47 L 639.25,410.31 L 641.52,380.32 L 643.77,406.97 L 646.00,384.61 L 648.21,400.75 L 650.45,398.80 L 652.69,407.22 L 654.92,375.53 L 657.14,382.28 L 659.39,397.34 L 661.62,381.42 L 663.84,392.65 L 666.09,404.32 L 668.28,399.06 L 670.50,380.78 L 672.77,398.71 L 675.04,389.13 L 677.25,395.42 L 679.48,391.01 L 681.69,369.47 L 683.90,391.40 L 686.20,376.43 L 688.37,373.40 L 690.63,381.46 L 692.87,400.14 L 695.12,388.48 L 697.36,401.26 L 699.61,394.35 L 701.84,393.61 L 704.07,368.41 L 706.27,373.46 L 708.46,382.09 L 710.76,385.76 L 712.96,378.84 L 715.21,355.60 L 717.41,395.43 L 719.64,378.26 L 721.91,376.91 L 724.17,355.21 L 726.36,370.64 L 728.57,361.50 L 730.85,353.92 L 733.07,370.86 L 735.31,369.83 L 737.53,376.59 L 739.75,376.35 L 742.00,346.93 L 744.23,384.12 L 746.48,373.73 L 748.77,358.37 L 750.93,355.07 L 753.19,364.34 L 755.43,342.75 L 757.62,378.83 L 759.90,356.17 L 762.09,356.06 L 764.33,352.55 L 766.55,341.30 L 768.81,363.16 L 771.01,347.50 L 773.30,355.53 L 775.49,374.29 L 777.75,350.43 L 779.98,350.95 L 782.20,354.49 L 784.46,358.77 L 786.62,333.68 L 788.94,356.17 L 791.14,361.43 L 793.42,340.10 L 795.61,355.52 L 797.84,356.12 L 800.00,355.75 L 802.33,365.18 L 804.52,340.78 L 806.80,326.56 L 809.00,339.71 L 811.24,349.48 L 813.50,347.69 L 815.75,348.57 L 817.97,346.41 L 820.23,329.58 L 822.43,332.89 L 824.66,320.85 L 826.90,334.96 L 829.11,345.22 L 831.32,315.62 L 833.56,340.27 L 835.83,316.57 L 838.06,312.54 L 840.25,339.90 L 842.54,329.55 L 844.75,315.77 L 846.96,326.53 L 849.20,346.66 L 851.43,329.69 L 853.69,325.65 L 855.90,333.73 L 858.16,343.09 L 860.37,309.02 L 862.60,317.03 L 864.82,325.73 L 867.08,335.89 L 869.33,317.08 L 871.54,314.76 L 873.75,324.80 L 876.01,300.25 L 878.27,336.78 L 880.47,324.39 L 882.74,312.81 L 884.94,325.62 L 887.20,310.61 L 889.42,312.93 L 891.69,319.83 L 893.87,315.13 L 896.12,309.06 L 898.31,306.40 L 900.60,312.92 L 902.80,297.95 L 905.04,287.68 L 907.26,304.06 L 909.51,297.70 L 911.76,308.75 L 914.00,307.45 L 916.16,299.83 L 918.46,311.33 L 920.66,322.61 L 922.90,307.57 L 925.15,302.61 L 927.38,300.06 L 929.61,297.06 L 931.83,300.62 L 934.07,298.13 L 936.29,295.31 L 938.57,275.56 L 940.73,305.78 L 943.05,293.39 L 945.23,279.19 L 947.45,290.40 L 949.75,289.26 L 951.90,272.41 L 954.13,293.09 L 956.41,293.43 L 958.61,285.48 L 960.90,292.52 L 963.11,283.38 L 965.34,283.49 L 967.59,270.27 L 969.78,307.04 L 972.01,278.31 L 974.34,273.52 L 976.49,285.77 L 978.75,276.76 L 980.96,261.39 L 983.16,268.44 L 985.37,258.59 L 987.66,273.41 L 989.89,282.93 L 992.13,279.25 L 994.35,274.22 L 996.62,259.40 L 998.82,280.66 L 1001.03,273.06 L 1003.37,278.60 L 1005.52,250.89 L 1007.76,248.89 L 1009.99,279.53 L 1012.25,267.55 L 1014.49,261.17 L 1016.71,267.24 L 1018.93,270.00 L 1021.16,261.55 L 1023.42,268.53 L 1025.64,244.59 L 1027.85,245.64 L 1030.10,265.42 L 1032.40,266.35 L 1034.56,256.00 L 1036.83,255.05 L 1039.06,239.82 L 1041.25,249.94 L 1043.50,239.28 L 1045.77,259.51 L 1047.99,273.11 L 1050.22,233.29 L 1052.48,232.74 L 1054.67,233.79 L 1056.94,231.45 L 1059.14,236.54 L 1061.38,266.94 L 1063.63,250.37 L 1065.87,240.73 L 1068.07,246.76 L 1070.36,250.98 L 1072.57,246.35 L 1074.74,260.83 L 1076.99,224.00 L 1079.23,246.81 L 1081.44,243.13 L 1083.69,221.77 L 1085.91,240.31 L 1088.18,217.66 L 1090.45,218.37 L 1092.64,234.59 L 1094.90,253.21 L 1097.08,230.95 L 1099.37,239.38 L 1101.56,223.89 L 1103.84,211.89 L 1105.97,224.00 L 1108.32,210.41 L 1110.53,233.26 L 1112.74,220.05 L 1115.02,232.70 L 1117.23,219.49 L 1119.46,220.86 L 1121.64,206.08 L 1123.92,234.66 L 1126.16,215.46 L 1128.35,234.04 L 1129.78,231.74 L 1129.84,232.47 L 1129.88,207.20 L 1130.00,221.25" fill="none" stroke="#1f77b4" stroke-width="2.4" opacity="0.95"/>
<path d="M 130.02,628.62 L 132.30,612.86 L 134.54,623.72 L 136.78,610.86 L 138.98,617.59 L 141.19,603.68 L 143.42,620.41 L 145.72,621.33 L 147.92,598.95 L 150.17,597.82 L 152.42,608.70 L 154.62,593.50 L 156.86,596.92 L 159.10,590.29 L 161.32,589.35 L 163.54,585.74 L 165.81,597.12 L 168.03,593.86 L 170.30,611.85 L 172.49,594.00 L 174.74,612.46 L 176.99,575.78 L 179.20,594.72 L 181.47,592.18 L 183.72,578.95 L 185.87,592.32 L 188.15,608.36 L 190.40,566.88 L 192.59,567.21 L 194.86,585.42 L 197.06,581.94 L 199.25,571.09 L 201.52,573.38 L 203.77,590.41 L 206.01,563.51 L 208.21,585.34 L 210.44,554.36 L 212.72,560.50 L 214.94,572.89 L 217.18,563.12 L 219.40,548.40 L 221.63,554.52 L 223.90,546.66 L 226.10,579.22 L 228.36,568.64 L 230.59,552.86 L 232.82,541.16 L 235.03,571.73 L 237.27,538.69 L 239.51,538.65 L 241.74,550.01 L 243.98,565.67 L 246.21,561.74 L 248.44,546.62 L 250.70,549.48 L 252.93,538.10 L 255.15,543.61 L 257.40,525.58 L 259.60,530.80 L 261.87,543.01 L 264.08,527.56 L 266.29,526.49 L 268.56,518.42 L 270.78,524.47 L 273.03,534.04 L 275.23,533.21 L 277.49,549.23 L 279.67,513.67 L 281.93,527.41 L 284.20,510.82 L 286.42,522.39 L 288.68,512.63 L 290.90,516.64 L 293.14,500.31 L 295.32,506.03 L 297.55,524.23 L 299.81,497.09 L 302.05,511.44 L 304.23,507.55 L 306.49,494.42 L 308.76,522.66 L 311.00,491.61 L 313.21,511.38 L 315.48,510.31 L 317.70,511.26 L 319.94,502.61 L 322.16,521.25 L 324.37,494.54 L 326.65,486.99 L 328.86,480.96 L 331.11,486.51 L 333.29,500.07 L 335.55,501.53 L 337.81,482.77 L 340.00,485.79 L 342.23,473.15 L 344.46,492.33 L 346.76,494.19 L 348.95,504.52 L 351.17,489.92 L 353.40,473.28 L 355.64,464.08 L 357.88,487.48 L 360.12,473.78 L 362.33,475.16 L 364.60,472.78 L 366.80,474.11 L 369.06,498.44 L 371.28,481.16 L 373.53,479.96 L 375.75,460.92 L 378.00,478.13 L 380.21,460.33 L 382.44,457.75 L 384.68,484.66 L 386.90,454.67 L 389.08,456.67 L 391.40,468.23 L 393.60,465.26 L 395.86,468.55 L 398.06,484.44 L 400.36,466.21 L 402.58,447.80 L 404.77,463.81 L 407.00,460.06 L 409.25,439.97 L 411.48,460.31 L 413.76,473.56 L 415.96,470.30 L 418.19,459.84 L 420.44,453.52 L 422.65,455.24 L 424.87,431.24 L 427.13,471.73 L 429.33,433.26 L 431.61,430.43 L 433.81,430.52 L 436.06,440.70 L 438.30,447.83 L 440.56,451.80 L 442.73,428.04 L 445.00,442.56 L 447.21,437.10 L 449.47,443.44 L 451.70,438.08 L 453.88,439.01 L 456.15,416.14 L 458.37,438.02 L 460.60,445.81 L 462.84,431.62 L 465.05,436.35 L 467.32,413.52 L 469.53,431.00 L 471.76,429.90 L 474.00,427.28 L 476.26,404.83 L 478.48,404.90 L 480.76,409.80 L 482.92,403.36 L 485.19,403.45 L 487.42,402.99 L 489.65,436.42 L 491.87,413.48 L 494.07,417.02 L 496.35,410.27 L 498.55,417.82 L 500.81,414.24 L 503.07,415.48 L 505.25,430.55 L 507.49,412.67 L 509.76,415.54 L 512.01,388.20 L 514.21,407.75 L 516.44,424.65 L 518.69,413.02 L 520.90,387.25 L 523.15,407.30 L 525.33,397.08 L 527.65,404.16 L 529.81,399.92 L 532.12,407.67 L 534.32,394.12 L 536.51,388.95 L 538.76,396.59 L 541.01,376.24 L 543.22,381.93 L 545.45,405.38 L 547.67,392.67 L 549.94,372.74 L 552.19,389.22 L 554.40,393.41 L 556.65,387.94 L 558.84,383.63 L 561.12,400.59 L 563.33,377.56 L 565.60,371.38 L 567.80,365.93 L 570.07,394.22 L 572.24,368.33 L 574.55,362.57 L 576.70,390.37 L 579.00,400.83 L 581.23,398.71 L 583.45,374.20 L 585.68,360.00 L 587.92,373.82 L 590.12,357.48 L 592.37,387.66 L 594.60,356.06 L 596.81,367.73 L 599.09,388.01 L 601.32,354.30 L 603.57,365.23 L 605.78,351.03 L 608.03,380.82 L 610.28,349.78 L 612.50,356.75 L 614.73,345.30 L 616.94,356.65 L 619.14,350.10 L 621.40,353.10 L 623.62,357.62 L 625.89,374.53 L 628.12,351.72 L 630.36,352.47 L 632.59,347.72 L 634.79,370.75 L 637.04,342.54 L 639.28,334.10 L 641.56,340.36 L 643.76,349.66 L 645.96,336.00 L 648.19,355.87 L 650.42,351.78 L 652.69,327.84 L 654.94,362.06 L 657.13,330.12 L 659.36,326.52 L 661.64,344.35 L 663.83,339.59 L 666.06,352.51 L 668.33,332.90 L 670.56,323.46 L 672.76,326.89 L 675.08,331.52 L 677.26,338.65 L 679.48,317.68 L 681.68,320.68 L 683.90,315.91 L 686.17,334.96 L 688.43,313.92 L 690.68,332.73 L 692.93,329.72 L 695.13,309.05 L 697.33,345.59 L 699.57,310.78 L 701.78,344.92 L 704.07,326.52 L 706.27,328.80 L 708.49,315.57 L 710.74,301.81 L 712.94,313.70 L 715.19,318.31 L 717.48,301.27 L 719.66,316.54 L 721.92,318.79 L 724.17,316.71 L 726.45,299.46 L 728.60,304.55 L 730.83,301.86 L 733.06,325.84 L 735.32,307.51 L 737.53,303.67 L 739.79,301.38 L 742.00,301.43 L 744.22,292.00 L 746.47,306.82 L 748.71,319.63 L 750.95,293.27 L 753.16,292.95 L 755.42,296.68 L 757.68,305.28 L 759.89,324.10 L 762.15,303.75 L 764.31,285.23 L 766.55,294.56 L 768.82,281.95 L 771.03,308.98 L 773.24,280.86 L 775.52,289.28 L 777.70,311.06 L 779.99,298.61 L 782.19,289.91 L 784.46,283.58 L 786.67,271.34 L 788.93,272.64 L 791.13,286.10 L 793.37,278.31 L 795.61,287.88 L 797.85,270.95 L 800.04,274.85 L 802.32,277.78 L 804.55,269.63 L 806.75,291.54 L 809.03,264.86 L 811.24,281.86 L 813.47,285.26 L 815.69,261.05 L 817.95,289.70 L 820.17,262.52 L 822.42,270.34 L 824.65,271.58 L 826.83,256.15 L 829.13,254.36 L 831.33,257.95 L 833.57,281.32 L 835.82,255.99 L 838.04,259.48 L 840.28,253.43 L 842.52,244.02 L 844.68,269.28 L 846.99,262.79 L 849.17,248.53 L 851.44,257.54 L 853.63,252.17 L 855.89,241.94 L 858.16,245.90 L 860.37,247.77 L 862.55,253.90 L 864.81,249.51 L 867.08,245.59 L 869.32,234.68 L 871.55,246.08 L 873.74,253.56 L 875.99,250.71 L 878.21,227.86 L 880.46,246.90 L 882.67,245.28 L 884.94,245.49 L 887.18,225.77 L 889.43,232.07 L 891.65,224.04 L 893.85,239.37 L 896.12,227.82 L 898.32,233.93 L 900.60,246.49 L 902.84,237.15 L 905.03,243.96 L 907.22,230.46 L 909.47,222.15 L 911.73,257.27 L 913.97,247.88 L 916.23,213.26 L 918.41,229.09 L 920.64,215.44 L 922.94,236.75 L 925.11,247.73 L 927.37,211.91 L 929.61,212.78 L 931.82,231.97 L 934.08,215.10 L 936.26,205.06 L 938.54,204.68 L 940.80,213.61 L 943.05,221.20 L 945.22,199.94 L 947.51,199.03 L 949.70,212.72 L 951.88,196.26 L 954.18,228.90 L 956.46,230.43 L 958.61,193.33 L 960.91,189.13 L 963.07,207.55 L 965.33,216.10 L 967.57,200.22 L 969.83,226.01 L 971.99,203.55 L 974.27,190.67 L 976.54,194.47 L 978.69,217.68 L 981.00,180.04 L 983.17,217.53 L 985.47,213.64 L 987.66,192.80 L 989.89,179.45 L 992.12,199.80 L 994.36,186.36 L 996.60,178.34 L 998.85,207.70 L 1001.09,168.78 L 1003.31,181.43 L 1005.52,182.13 L 1007.83,191.43 L 1010.00,174.05 L 1012.24,171.26 L 1014.48,161.28 L 1016.68,177.79 L 1018.94,197.95 L 1021.16,173.74 L 1023.44,163.90 L 1025.65,194.03 L 1027.88,163.87 L 1030.06,154.81 L 1032.37,158.16 L 1034.56,166.33 L 1036.82,181.28 L 1039.08,176.51 L 1041.26,158.92 L 1043.52,179.14 L 1045.76,156.23 L 1047.97,161.93 L 1050.24,160.05 L 1052.47,169.73 L 1054.65,144.37 L 1056.90,165.58 L 1059.10,146.83 L 1061.32,140.80 L 1063.60,143.44 L 1065.86,154.02 L 1068.08,157.02 L 1070.32,139.26 L 1072.58,136.36 L 1074.80,171.80 L 1077.00,150.44 L 1079.25,142.73 L 1081.47,158.34 L 1083.74,148.71 L 1085.92,135.02 L 1088.10,132.58 L 1090.43,146.16 L 1092.64,125.61 L 1094.86,126.94 L 1097.15,138.27 L 1099.35,138.00 L 1101.60,137.47 L 1103.82,129.32 L 1105.97,135.28 L 1108.26,138.27 L 1110.53,141.04 L 1112.74,137.02 L 1114.99,126.63 L 1117.16,121.66 L 1119.42,118.07 L 1121.68,126.26 L 1123.91,117.40 L 1126.18,120.05 L 1128.40,128.10 L 1129.78,111.38 L 1129.83,118.22 L 1129.87,116.43 L 1129.94,128.76" fill="none" stroke="#d62728" stroke-width="2.4" opacity="0.90"/>
<text x="630.00" y="742" text-anchor="middle" font-family="Helvetica,Arial,sans-serif" font-size="16" fill="#243746">Displacement (raw file units)</text>
<text x="24" y="370.00" transform="rotate(-90 24 370.00)" text-anchor="middle" font-family="Helvetica,Arial,sans-serif" font-size="16" fill="#243746">Force (raw file units)</text>
<rect x="875" y="92" width="290" height="78" rx="10" fill="#ffffff" stroke="#d9e3ea"/>
<line x1="891" y1="118" x2="937" y2="118" stroke="#1f77b4" stroke-width="3"/>
<text x="949" y="123" font-family="Helvetica,Arial,sans-serif" font-size="14" fill="#233647">Parallel to ribs (2.5)</text>
<line x1="891" y1="144" x2="937" y2="144" stroke="#d62728" stroke-width="3"/>
<text x="949" y="149" font-family="Helvetica,Arial,sans-serif" font-size="14" fill="#233647">Normal to ribs (2.5)</text>
<text x="90" y="738" font-family="Helvetica,Arial,sans-serif" font-size="12" fill="#617283">Generated from filtered .dat files in this repository for portfolio preview.</text>
</svg>